<?xml version="1.0" encoding="UTF-8"?>
<svg xmlns="http://www.w3.org/2000/svg" width="64" height="64" viewBox="0 0 64 64">
<defs><filter id="glow" x="-30%" y="-30%" width="160%" height="160%"><feGaussianBlur stdDeviation="1.4"/></filter></defs>
<g stroke="#e8edf5" stroke-width="1.2" stroke-linejoin="round"><path d="M22 10 V32 L19 28 L15 30 L20 42 Q22 50 30 50 H40 Q46 50 46 44 V28 Q46 25 43 25 Q40 25 40 28 V24 Q40 21 37 21 Q34 21 34 24 V22 Q34 19 31 19 Q28 19 28 22 V12 Q28 9 25 9 Q22 9 22 10 Z" fill="#0a0d14"/></g><path d="M28 16 V28 M34 22 V28 M40 24 V28" stroke="#3ad8ff" stroke-width="0.8" opacity="0.6"/>
</svg>
