<?xml version="1.0" encoding="UTF-8"?>
<svg xmlns="http://www.w3.org/2000/svg" width="3840" height="2160" viewBox="0 0 3840 2160" preserveAspectRatio="xMidYMid slice">
<defs></defs>
<rect width="3840" height="2160" fill="#02030a"/><line x1="1920" y1="1080" x2="3420" y2="1080" stroke="#a06bff" stroke-opacity="0.06" stroke-width="1.5"/><line x1="1920" y1="1080" x2="3369" y2="1468" stroke="#a06bff" stroke-opacity="0.06" stroke-width="1.5"/><line x1="1920" y1="1080" x2="3219" y2="1830" stroke="#a06bff" stroke-opacity="0.06" stroke-width="1.5"/><line x1="1920" y1="1080" x2="2981" y2="2141" stroke="#a06bff" stroke-opacity="0.06" stroke-width="1.5"/><line x1="1920" y1="1080" x2="2670" y2="2379" stroke="#a06bff" stroke-opacity="0.06" stroke-width="1.5"/><line x1="1920" y1="1080" x2="2308" y2="2529" stroke="#a06bff" stroke-opacity="0.06" stroke-width="1.5"/><line x1="1920" y1="1080" x2="1920" y2="2580" stroke="#a06bff" stroke-opacity="0.06" stroke-width="1.5"/><line x1="1920" y1="1080" x2="1532" y2="2529" stroke="#a06bff" stroke-opacity="0.06" stroke-width="1.5"/><line x1="1920" y1="1080" x2="1170" y2="2379" stroke="#a06bff" stroke-opacity="0.06" stroke-width="1.5"/><line x1="1920" y1="1080" x2="859" y2="2141" stroke="#a06bff" stroke-opacity="0.06" stroke-width="1.5"/><line x1="1920" y1="1080" x2="621" y2="1830" stroke="#a06bff" stroke-opacity="0.06" stroke-width="1.5"/><line x1="1920" y1="1080" x2="471" y2="1468" stroke="#a06bff" stroke-opacity="0.06" stroke-width="1.5"/><line x1="1920" y1="1080" x2="420" y2="1080" stroke="#a06bff" stroke-opacity="0.06" stroke-width="1.5"/><line x1="1920" y1="1080" x2="471" y2="692" stroke="#a06bff" stroke-opacity="0.06" stroke-width="1.5"/><line x1="1920" y1="1080" x2="621" y2="330" stroke="#a06bff" stroke-opacity="0.06" stroke-width="1.5"/><line x1="1920" y1="1080" x2="859" y2="19" stroke="#a06bff" stroke-opacity="0.06" stroke-width="1.5"/><line x1="1920" y1="1080" x2="1170" y2="-219" stroke="#a06bff" stroke-opacity="0.06" stroke-width="1.5"/><line x1="1920" y1="1080" x2="1532" y2="-369" stroke="#a06bff" stroke-opacity="0.06" stroke-width="1.5"/><line x1="1920" y1="1080" x2="1920" y2="-420" stroke="#a06bff" stroke-opacity="0.06" stroke-width="1.5"/><line x1="1920" y1="1080" x2="2308" y2="-369" stroke="#a06bff" stroke-opacity="0.06" stroke-width="1.5"/><line x1="1920" y1="1080" x2="2670" y2="-219" stroke="#a06bff" stroke-opacity="0.06" stroke-width="1.5"/><line x1="1920" y1="1080" x2="2981" y2="19" stroke="#a06bff" stroke-opacity="0.06" stroke-width="1.5"/><line x1="1920" y1="1080" x2="3219" y2="330" stroke="#a06bff" stroke-opacity="0.06" stroke-width="1.5"/><line x1="1920" y1="1080" x2="3369" y2="692" stroke="#a06bff" stroke-opacity="0.06" stroke-width="1.5"/><circle cx="1920" cy="1080" r="320" fill="none" stroke="#a06bff" stroke-opacity="0.45" stroke-width="3"/><circle cx="1920" cy="1080" r="180" fill="none" stroke="#3ad8ff" stroke-opacity="0.55" stroke-width="2"/><circle cx="1920" cy="1080" r="60"  fill="#0a0d14" stroke="#e8edf5" stroke-opacity="0.65" stroke-width="2"/><text x="1920" y="1098" text-anchor="middle" font-family="Inter, sans-serif" font-size="48" font-weight="700" fill="#e8edf5" letter-spacing="8">NYXUS</text>
</svg>
