<?xml version="1.0" encoding="UTF-8"?>
<svg xmlns="http://www.w3.org/2000/svg" width="3840" height="2160" viewBox="0 0 3840 2160" preserveAspectRatio="xMidYMid slice">
<defs><radialGradient id="g" cx="50%" cy="50%" r="70%"><stop offset="0%" stop-color="#0d0820"/><stop offset="55%" stop-color="#050308"/><stop offset="100%" stop-color="#000000"/></radialGradient></defs>
<rect width="3840" height="2160" fill="url(#g)"/><circle cx="1920" cy="1080" r="80" fill="none" stroke="#a06bff" stroke-opacity="0.220" stroke-width="1.2"/><circle cx="1920" cy="1080" r="170" fill="none" stroke="#a06bff" stroke-opacity="0.213" stroke-width="1.2"/><circle cx="1920" cy="1080" r="260" fill="none" stroke="#a06bff" stroke-opacity="0.206" stroke-width="1.2"/><circle cx="1920" cy="1080" r="350" fill="none" stroke="#a06bff" stroke-opacity="0.199" stroke-width="1.2"/><circle cx="1920" cy="1080" r="440" fill="none" stroke="#a06bff" stroke-opacity="0.192" stroke-width="1.2"/><circle cx="1920" cy="1080" r="530" fill="none" stroke="#a06bff" stroke-opacity="0.185" stroke-width="1.2"/><circle cx="1920" cy="1080" r="620" fill="none" stroke="#a06bff" stroke-opacity="0.178" stroke-width="1.2"/><circle cx="1920" cy="1080" r="710" fill="none" stroke="#a06bff" stroke-opacity="0.171" stroke-width="1.2"/><circle cx="1920" cy="1080" r="800" fill="none" stroke="#a06bff" stroke-opacity="0.164" stroke-width="1.2"/><circle cx="1920" cy="1080" r="890" fill="none" stroke="#a06bff" stroke-opacity="0.157" stroke-width="1.2"/><circle cx="1920" cy="1080" r="980" fill="none" stroke="#a06bff" stroke-opacity="0.150" stroke-width="1.2"/><circle cx="1920" cy="1080" r="1070" fill="none" stroke="#a06bff" stroke-opacity="0.143" stroke-width="1.2"/><circle cx="1920" cy="1080" r="1160" fill="none" stroke="#a06bff" stroke-opacity="0.136" stroke-width="1.2"/><circle cx="1920" cy="1080" r="1250" fill="none" stroke="#a06bff" stroke-opacity="0.129" stroke-width="1.2"/><circle cx="1920" cy="1080" r="1340" fill="none" stroke="#a06bff" stroke-opacity="0.122" stroke-width="1.2"/><circle cx="1920" cy="1080" r="1430" fill="none" stroke="#a06bff" stroke-opacity="0.115" stroke-width="1.2"/><circle cx="1920" cy="1080" r="1520" fill="none" stroke="#a06bff" stroke-opacity="0.108" stroke-width="1.2"/><circle cx="1920" cy="1080" r="1610" fill="none" stroke="#a06bff" stroke-opacity="0.101" stroke-width="1.2"/><circle cx="1920" cy="1080" r="1700" fill="none" stroke="#a06bff" stroke-opacity="0.094" stroke-width="1.2"/><circle cx="1920" cy="1080" r="1790" fill="none" stroke="#a06bff" stroke-opacity="0.087" stroke-width="1.2"/><circle cx="1920" cy="1080" r="1880" fill="none" stroke="#a06bff" stroke-opacity="0.080" stroke-width="1.2"/><circle cx="1920" cy="1080" r="1970" fill="none" stroke="#a06bff" stroke-opacity="0.073" stroke-width="1.2"/><circle cx="1920" cy="1080" r="2060" fill="none" stroke="#a06bff" stroke-opacity="0.066" stroke-width="1.2"/><circle cx="1920" cy="1080" r="2150" fill="none" stroke="#a06bff" stroke-opacity="0.059" stroke-width="1.2"/><circle cx="1920" cy="1080" r="2240" fill="none" stroke="#a06bff" stroke-opacity="0.052" stroke-width="1.2"/><circle cx="1920" cy="1080" r="2330" fill="none" stroke="#a06bff" stroke-opacity="0.045" stroke-width="1.2"/><circle cx="1920" cy="1080" r="2420" fill="none" stroke="#a06bff" stroke-opacity="0.038" stroke-width="1.2"/><circle cx="1920" cy="1080" r="2510" fill="none" stroke="#a06bff" stroke-opacity="0.031" stroke-width="1.2"/>
</svg>
