<?xml version="1.0" encoding="UTF-8"?>
<svg xmlns="http://www.w3.org/2000/svg" width="3840" height="2160" viewBox="0 0 3840 2160" preserveAspectRatio="xMidYMid slice">
<defs></defs>
<rect width="3840" height="2160" fill="#04070b"/><line x1="0" y1="0" x2="0" y2="2160" stroke="#3ad8ff" stroke-opacity="0.060" stroke-width="1"/><line x1="120" y1="0" x2="120" y2="2160" stroke="#3ad8ff" stroke-opacity="0.066" stroke-width="1"/><line x1="240" y1="0" x2="240" y2="2160" stroke="#3ad8ff" stroke-opacity="0.072" stroke-width="1"/><line x1="360" y1="0" x2="360" y2="2160" stroke="#3ad8ff" stroke-opacity="0.079" stroke-width="1"/><line x1="480" y1="0" x2="480" y2="2160" stroke="#3ad8ff" stroke-opacity="0.085" stroke-width="1"/><line x1="600" y1="0" x2="600" y2="2160" stroke="#3ad8ff" stroke-opacity="0.091" stroke-width="1"/><line x1="720" y1="0" x2="720" y2="2160" stroke="#3ad8ff" stroke-opacity="0.098" stroke-width="1"/><line x1="840" y1="0" x2="840" y2="2160" stroke="#3ad8ff" stroke-opacity="0.104" stroke-width="1"/><line x1="960" y1="0" x2="960" y2="2160" stroke="#3ad8ff" stroke-opacity="0.110" stroke-width="1"/><line x1="1080" y1="0" x2="1080" y2="2160" stroke="#3ad8ff" stroke-opacity="0.116" stroke-width="1"/><line x1="1200" y1="0" x2="1200" y2="2160" stroke="#3ad8ff" stroke-opacity="0.122" stroke-width="1"/><line x1="1320" y1="0" x2="1320" y2="2160" stroke="#3ad8ff" stroke-opacity="0.129" stroke-width="1"/><line x1="1440" y1="0" x2="1440" y2="2160" stroke="#3ad8ff" stroke-opacity="0.135" stroke-width="1"/><line x1="1560" y1="0" x2="1560" y2="2160" stroke="#3ad8ff" stroke-opacity="0.141" stroke-width="1"/><line x1="1680" y1="0" x2="1680" y2="2160" stroke="#3ad8ff" stroke-opacity="0.148" stroke-width="1"/><line x1="1800" y1="0" x2="1800" y2="2160" stroke="#3ad8ff" stroke-opacity="0.154" stroke-width="1"/><line x1="1920" y1="0" x2="1920" y2="2160" stroke="#3ad8ff" stroke-opacity="0.160" stroke-width="1"/><line x1="2040" y1="0" x2="2040" y2="2160" stroke="#3ad8ff" stroke-opacity="0.154" stroke-width="1"/><line x1="2160" y1="0" x2="2160" y2="2160" stroke="#3ad8ff" stroke-opacity="0.148" stroke-width="1"/><line x1="2280" y1="0" x2="2280" y2="2160" stroke="#3ad8ff" stroke-opacity="0.141" stroke-width="1"/><line x1="2400" y1="0" x2="2400" y2="2160" stroke="#3ad8ff" stroke-opacity="0.135" stroke-width="1"/><line x1="2520" y1="0" x2="2520" y2="2160" stroke="#3ad8ff" stroke-opacity="0.129" stroke-width="1"/><line x1="2640" y1="0" x2="2640" y2="2160" stroke="#3ad8ff" stroke-opacity="0.122" stroke-width="1"/><line x1="2760" y1="0" x2="2760" y2="2160" stroke="#3ad8ff" stroke-opacity="0.116" stroke-width="1"/><line x1="2880" y1="0" x2="2880" y2="2160" stroke="#3ad8ff" stroke-opacity="0.110" stroke-width="1"/><line x1="3000" y1="0" x2="3000" y2="2160" stroke="#3ad8ff" stroke-opacity="0.104" stroke-width="1"/><line x1="3120" y1="0" x2="3120" y2="2160" stroke="#3ad8ff" stroke-opacity="0.098" stroke-width="1"/><line x1="3240" y1="0" x2="3240" y2="2160" stroke="#3ad8ff" stroke-opacity="0.091" stroke-width="1"/><line x1="3360" y1="0" x2="3360" y2="2160" stroke="#3ad8ff" stroke-opacity="0.085" stroke-width="1"/><line x1="3480" y1="0" x2="3480" y2="2160" stroke="#3ad8ff" stroke-opacity="0.079" stroke-width="1"/><line x1="3600" y1="0" x2="3600" y2="2160" stroke="#3ad8ff" stroke-opacity="0.072" stroke-width="1"/><line x1="3720" y1="0" x2="3720" y2="2160" stroke="#3ad8ff" stroke-opacity="0.066" stroke-width="1"/><line x1="3840" y1="0" x2="3840" y2="2160" stroke="#3ad8ff" stroke-opacity="0.060" stroke-width="1"/><line x1="0" y1="0" x2="3840" y2="0" stroke="#3ad8ff" stroke-opacity="0.060" stroke-width="1"/><line x1="0" y1="120" x2="3840" y2="120" stroke="#3ad8ff" stroke-opacity="0.071" stroke-width="1"/><line x1="0" y1="240" x2="3840" y2="240" stroke="#3ad8ff" stroke-opacity="0.082" stroke-width="1"/><line x1="0" y1="360" x2="3840" y2="360" stroke="#3ad8ff" stroke-opacity="0.093" stroke-width="1"/><line x1="0" y1="480" x2="3840" y2="480" stroke="#3ad8ff" stroke-opacity="0.104" stroke-width="1"/><line x1="0" y1="600" x2="3840" y2="600" stroke="#3ad8ff" stroke-opacity="0.116" stroke-width="1"/><line x1="0" y1="720" x2="3840" y2="720" stroke="#3ad8ff" stroke-opacity="0.127" stroke-width="1"/><line x1="0" y1="840" x2="3840" y2="840" stroke="#3ad8ff" stroke-opacity="0.138" stroke-width="1"/><line x1="0" y1="960" x2="3840" y2="960" stroke="#3ad8ff" stroke-opacity="0.149" stroke-width="1"/><line x1="0" y1="1080" x2="3840" y2="1080" stroke="#3ad8ff" stroke-opacity="0.160" stroke-width="1"/><line x1="0" y1="1200" x2="3840" y2="1200" stroke="#3ad8ff" stroke-opacity="0.149" stroke-width="1"/><line x1="0" y1="1320" x2="3840" y2="1320" stroke="#3ad8ff" stroke-opacity="0.138" stroke-width="1"/><line x1="0" y1="1440" x2="3840" y2="1440" stroke="#3ad8ff" stroke-opacity="0.127" stroke-width="1"/><line x1="0" y1="1560" x2="3840" y2="1560" stroke="#3ad8ff" stroke-opacity="0.116" stroke-width="1"/><line x1="0" y1="1680" x2="3840" y2="1680" stroke="#3ad8ff" stroke-opacity="0.104" stroke-width="1"/><line x1="0" y1="1800" x2="3840" y2="1800" stroke="#3ad8ff" stroke-opacity="0.093" stroke-width="1"/><line x1="0" y1="1920" x2="3840" y2="1920" stroke="#3ad8ff" stroke-opacity="0.082" stroke-width="1"/><line x1="0" y1="2040" x2="3840" y2="2040" stroke="#3ad8ff" stroke-opacity="0.071" stroke-width="1"/><line x1="0" y1="2160" x2="3840" y2="2160" stroke="#3ad8ff" stroke-opacity="0.060" stroke-width="1"/><circle cx="1920" cy="1080" r="6" fill="#3ad8ff"/>
</svg>
