<?xml version="1.0" encoding="UTF-8"?>
<svg xmlns="http://www.w3.org/2000/svg" width="3840" height="2160" viewBox="0 0 3840 2160" preserveAspectRatio="xMidYMid slice">
<defs></defs>
<rect width="3840" height="2160" fill="#03050a"/><line x1="7.1" y1="2.0" x2="248.0" y2="5.1" stroke="#3ad8ff" stroke-opacity="0.10" stroke-width="0.8"/><line x1="7.1" y1="2.0" x2="-2.6" y2="255.9" stroke="#3ad8ff" stroke-opacity="0.10" stroke-width="0.8"/><line x1="248.0" y1="5.1" x2="491.9" y2="19.5" stroke="#3ad8ff" stroke-opacity="0.10" stroke-width="0.8"/><line x1="248.0" y1="5.1" x2="238.1" y2="244.0" stroke="#3ad8ff" stroke-opacity="0.10" stroke-width="0.8"/><line x1="491.9" y1="19.5" x2="761.0" y2="17.4" stroke="#3ad8ff" stroke-opacity="0.10" stroke-width="0.8"/><line x1="491.9" y1="19.5" x2="513.5" y2="277.1" stroke="#3ad8ff" stroke-opacity="0.10" stroke-width="0.8"/><line x1="761.0" y1="17.4" x2="1049.3" y2="-11.5" stroke="#3ad8ff" stroke-opacity="0.10" stroke-width="0.8"/><line x1="761.0" y1="17.4" x2="772.6" y2="242.6" stroke="#3ad8ff" stroke-opacity="0.10" stroke-width="0.8"/><line x1="1049.3" y1="-11.5" x2="1309.5" y2="-17.7" stroke="#3ad8ff" stroke-opacity="0.10" stroke-width="0.8"/><line x1="1049.3" y1="-11.5" x2="1018.4" y2="279.2" stroke="#3ad8ff" stroke-opacity="0.10" stroke-width="0.8"/><line x1="1309.5" y1="-17.7" x2="1545.4" y2="24.7" stroke="#3ad8ff" stroke-opacity="0.10" stroke-width="0.8"/><line x1="1309.5" y1="-17.7" x2="1287.2" y2="280.5" stroke="#3ad8ff" stroke-opacity="0.10" stroke-width="0.8"/><line x1="1545.4" y1="24.7" x2="1768.6" y2="19.2" stroke="#3ad8ff" stroke-opacity="0.10" stroke-width="0.8"/><line x1="1545.4" y1="24.7" x2="1544.1" y2="251.8" stroke="#3ad8ff" stroke-opacity="0.10" stroke-width="0.8"/><line x1="1768.6" y1="19.2" x2="2041.9" y2="-26.1" stroke="#3ad8ff" stroke-opacity="0.10" stroke-width="0.8"/><line x1="1768.6" y1="19.2" x2="1779.1" y2="267.1" stroke="#3ad8ff" stroke-opacity="0.10" stroke-width="0.8"/><line x1="2041.9" y1="-26.1" x2="2316.0" y2="-9.1" stroke="#3ad8ff" stroke-opacity="0.10" stroke-width="0.8"/><line x1="2041.9" y1="-26.1" x2="2073.0" y2="287.9" stroke="#3ad8ff" stroke-opacity="0.10" stroke-width="0.8"/><line x1="2316.0" y1="-9.1" x2="2554.2" y2="18.1" stroke="#3ad8ff" stroke-opacity="0.10" stroke-width="0.8"/><line x1="2316.0" y1="-9.1" x2="2292.9" y2="287.7" stroke="#3ad8ff" stroke-opacity="0.10" stroke-width="0.8"/><line x1="2554.2" y1="18.1" x2="2834.0" y2="9.8" stroke="#3ad8ff" stroke-opacity="0.10" stroke-width="0.8"/><line x1="2554.2" y1="18.1" x2="2566.6" y2="265.9" stroke="#3ad8ff" stroke-opacity="0.10" stroke-width="0.8"/><line x1="2834.0" y1="9.8" x2="3092.0" y2="5.7" stroke="#3ad8ff" stroke-opacity="0.10" stroke-width="0.8"/><line x1="2834.0" y1="9.8" x2="2833.4" y2="273.0" stroke="#3ad8ff" stroke-opacity="0.10" stroke-width="0.8"/><line x1="3092.0" y1="5.7" x2="3325.7" y2="27.5" stroke="#3ad8ff" stroke-opacity="0.10" stroke-width="0.8"/><line x1="3092.0" y1="5.7" x2="3088.6" y2="273.3" stroke="#3ad8ff" stroke-opacity="0.10" stroke-width="0.8"/><line x1="3325.7" y1="27.5" x2="3601.7" y2="-11.2" stroke="#3ad8ff" stroke-opacity="0.10" stroke-width="0.8"/><line x1="3325.7" y1="27.5" x2="3336.7" y2="290.9" stroke="#3ad8ff" stroke-opacity="0.10" stroke-width="0.8"/><line x1="3601.7" y1="-11.2" x2="3851.4" y2="24.9" stroke="#3ad8ff" stroke-opacity="0.10" stroke-width="0.8"/><line x1="3601.7" y1="-11.2" x2="3566.8" y2="298.5" stroke="#3ad8ff" stroke-opacity="0.10" stroke-width="0.8"/><line x1="3851.4" y1="24.9" x2="3841.7" y2="271.7" stroke="#3ad8ff" stroke-opacity="0.10" stroke-width="0.8"/><line x1="-2.6" y1="255.9" x2="238.1" y2="244.0" stroke="#3ad8ff" stroke-opacity="0.10" stroke-width="0.8"/><line x1="-2.6" y1="255.9" x2="16.5" y2="513.0" stroke="#3ad8ff" stroke-opacity="0.10" stroke-width="0.8"/><line x1="238.1" y1="244.0" x2="513.5" y2="277.1" stroke="#3ad8ff" stroke-opacity="0.10" stroke-width="0.8"/><line x1="238.1" y1="244.0" x2="255.7" y2="554.2" stroke="#3ad8ff" stroke-opacity="0.10" stroke-width="0.8"/><line x1="513.5" y1="277.1" x2="772.6" y2="242.6" stroke="#3ad8ff" stroke-opacity="0.10" stroke-width="0.8"/><line x1="513.5" y1="277.1" x2="509.3" y2="563.9" stroke="#3ad8ff" stroke-opacity="0.10" stroke-width="0.8"/><line x1="772.6" y1="242.6" x2="1018.4" y2="279.2" stroke="#3ad8ff" stroke-opacity="0.10" stroke-width="0.8"/><line x1="772.6" y1="242.6" x2="786.3" y2="539.3" stroke="#3ad8ff" stroke-opacity="0.10" stroke-width="0.8"/><line x1="1018.4" y1="279.2" x2="1287.2" y2="280.5" stroke="#3ad8ff" stroke-opacity="0.10" stroke-width="0.8"/><line x1="1018.4" y1="279.2" x2="1039.1" y2="553.7" stroke="#3ad8ff" stroke-opacity="0.10" stroke-width="0.8"/><line x1="1287.2" y1="280.5" x2="1544.1" y2="251.8" stroke="#3ad8ff" stroke-opacity="0.10" stroke-width="0.8"/><line x1="1287.2" y1="280.5" x2="1271.2" y2="543.5" stroke="#3ad8ff" stroke-opacity="0.10" stroke-width="0.8"/><line x1="1544.1" y1="251.8" x2="1779.1" y2="267.1" stroke="#3ad8ff" stroke-opacity="0.10" stroke-width="0.8"/><line x1="1544.1" y1="251.8" x2="1540.1" y2="525.4" stroke="#3ad8ff" stroke-opacity="0.10" stroke-width="0.8"/><line x1="1779.1" y1="267.1" x2="2073.0" y2="287.9" stroke="#3ad8ff" stroke-opacity="0.10" stroke-width="0.8"/><line x1="1779.1" y1="267.1" x2="1766.0" y2="517.8" stroke="#3ad8ff" stroke-opacity="0.10" stroke-width="0.8"/><line x1="2073.0" y1="287.9" x2="2292.9" y2="287.7" stroke="#3ad8ff" stroke-opacity="0.10" stroke-width="0.8"/><line x1="2073.0" y1="287.9" x2="2021.5" y2="520.2" stroke="#3ad8ff" stroke-opacity="0.10" stroke-width="0.8"/><line x1="2292.9" y1="287.7" x2="2566.6" y2="265.9" stroke="#3ad8ff" stroke-opacity="0.10" stroke-width="0.8"/><line x1="2292.9" y1="287.7" x2="2323.2" y2="521.5" stroke="#3ad8ff" stroke-opacity="0.10" stroke-width="0.8"/><line x1="2566.6" y1="265.9" x2="2833.4" y2="273.0" stroke="#3ad8ff" stroke-opacity="0.10" stroke-width="0.8"/><line x1="2566.6" y1="265.9" x2="2587.2" y2="560.0" stroke="#3ad8ff" stroke-opacity="0.10" stroke-width="0.8"/><line x1="2833.4" y1="273.0" x2="3088.6" y2="273.3" stroke="#3ad8ff" stroke-opacity="0.10" stroke-width="0.8"/><line x1="2833.4" y1="273.0" x2="2838.7" y2="543.3" stroke="#3ad8ff" stroke-opacity="0.10" stroke-width="0.8"/><line x1="3088.6" y1="273.3" x2="3336.7" y2="290.9" stroke="#3ad8ff" stroke-opacity="0.10" stroke-width="0.8"/><line x1="3088.6" y1="273.3" x2="3067.6" y2="546.4" stroke="#3ad8ff" stroke-opacity="0.10" stroke-width="0.8"/><line x1="3336.7" y1="290.9" x2="3566.8" y2="298.5" stroke="#3ad8ff" stroke-opacity="0.10" stroke-width="0.8"/><line x1="3336.7" y1="290.9" x2="3350.9" y2="565.9" stroke="#3ad8ff" stroke-opacity="0.10" stroke-width="0.8"/><line x1="3566.8" y1="298.5" x2="3841.7" y2="271.7" stroke="#3ad8ff" stroke-opacity="0.10" stroke-width="0.8"/><line x1="3566.8" y1="298.5" x2="3579.8" y2="554.5" stroke="#3ad8ff" stroke-opacity="0.10" stroke-width="0.8"/><line x1="3841.7" y1="271.7" x2="3819.3" y2="548.0" stroke="#3ad8ff" stroke-opacity="0.10" stroke-width="0.8"/><line x1="16.5" y1="513.0" x2="255.7" y2="554.2" stroke="#3ad8ff" stroke-opacity="0.10" stroke-width="0.8"/><line x1="16.5" y1="513.0" x2="-9.2" y2="784.1" stroke="#3ad8ff" stroke-opacity="0.10" stroke-width="0.8"/><line x1="255.7" y1="554.2" x2="509.3" y2="563.9" stroke="#3ad8ff" stroke-opacity="0.10" stroke-width="0.8"/><line x1="255.7" y1="554.2" x2="247.1" y2="820.6" stroke="#3ad8ff" stroke-opacity="0.10" stroke-width="0.8"/><line x1="509.3" y1="563.9" x2="786.3" y2="539.3" stroke="#3ad8ff" stroke-opacity="0.10" stroke-width="0.8"/><line x1="509.3" y1="563.9" x2="518.1" y2="823.0" stroke="#3ad8ff" stroke-opacity="0.10" stroke-width="0.8"/><line x1="786.3" y1="539.3" x2="1039.1" y2="553.7" stroke="#3ad8ff" stroke-opacity="0.10" stroke-width="0.8"/><line x1="786.3" y1="539.3" x2="749.5" y2="809.0" stroke="#3ad8ff" stroke-opacity="0.10" stroke-width="0.8"/><line x1="1039.1" y1="553.7" x2="1271.2" y2="543.5" stroke="#3ad8ff" stroke-opacity="0.10" stroke-width="0.8"/><line x1="1039.1" y1="553.7" x2="1030.8" y2="813.2" stroke="#3ad8ff" stroke-opacity="0.10" stroke-width="0.8"/><line x1="1271.2" y1="543.5" x2="1540.1" y2="525.4" stroke="#3ad8ff" stroke-opacity="0.10" stroke-width="0.8"/><line x1="1271.2" y1="543.5" x2="1259.6" y2="822.7" stroke="#3ad8ff" stroke-opacity="0.10" stroke-width="0.8"/><line x1="1540.1" y1="525.4" x2="1766.0" y2="517.8" stroke="#3ad8ff" stroke-opacity="0.10" stroke-width="0.8"/><line x1="1540.1" y1="525.4" x2="1556.6" y2="803.6" stroke="#3ad8ff" stroke-opacity="0.10" stroke-width="0.8"/><line x1="1766.0" y1="517.8" x2="2021.5" y2="520.2" stroke="#3ad8ff" stroke-opacity="0.10" stroke-width="0.8"/><line x1="1766.0" y1="517.8" x2="1773.7" y2="825.8" stroke="#3ad8ff" stroke-opacity="0.10" stroke-width="0.8"/><line x1="2021.5" y1="520.2" x2="2323.2" y2="521.5" stroke="#3ad8ff" stroke-opacity="0.10" stroke-width="0.8"/><line x1="2021.5" y1="520.2" x2="2055.5" y2="805.1" stroke="#3ad8ff" stroke-opacity="0.10" stroke-width="0.8"/><line x1="2323.2" y1="521.5" x2="2587.2" y2="560.0" stroke="#3ad8ff" stroke-opacity="0.10" stroke-width="0.8"/><line x1="2323.2" y1="521.5" x2="2283.5" y2="808.2" stroke="#3ad8ff" stroke-opacity="0.10" stroke-width="0.8"/><line x1="2587.2" y1="560.0" x2="2838.7" y2="543.3" stroke="#3ad8ff" stroke-opacity="0.10" stroke-width="0.8"/><line x1="2587.2" y1="560.0" x2="2571.9" y2="799.3" stroke="#3ad8ff" stroke-opacity="0.10" stroke-width="0.8"/><line x1="2838.7" y1="543.3" x2="3067.6" y2="546.4" stroke="#3ad8ff" stroke-opacity="0.10" stroke-width="0.8"/><line x1="2838.7" y1="543.3" x2="2787.8" y2="816.0" stroke="#3ad8ff" stroke-opacity="0.10" stroke-width="0.8"/><line x1="3067.6" y1="546.4" x2="3350.9" y2="565.9" stroke="#3ad8ff" stroke-opacity="0.10" stroke-width="0.8"/><line x1="3067.6" y1="546.4" x2="3080.5" y2="798.4" stroke="#3ad8ff" stroke-opacity="0.10" stroke-width="0.8"/><line x1="3350.9" y1="565.9" x2="3579.8" y2="554.5" stroke="#3ad8ff" stroke-opacity="0.10" stroke-width="0.8"/><line x1="3350.9" y1="565.9" x2="3354.6" y2="812.8" stroke="#3ad8ff" stroke-opacity="0.10" stroke-width="0.8"/><line x1="3579.8" y1="554.5" x2="3819.3" y2="548.0" stroke="#3ad8ff" stroke-opacity="0.10" stroke-width="0.8"/><line x1="3579.8" y1="554.5" x2="3600.8" y2="832.4" stroke="#3ad8ff" stroke-opacity="0.10" stroke-width="0.8"/><line x1="3819.3" y1="548.0" x2="3823.5" y2="798.3" stroke="#3ad8ff" stroke-opacity="0.10" stroke-width="0.8"/><line x1="-9.2" y1="784.1" x2="247.1" y2="820.6" stroke="#3ad8ff" stroke-opacity="0.10" stroke-width="0.8"/><line x1="-9.2" y1="784.1" x2="-3.6" y2="1072.7" stroke="#3ad8ff" stroke-opacity="0.10" stroke-width="0.8"/><line x1="247.1" y1="820.6" x2="518.1" y2="823.0" stroke="#3ad8ff" stroke-opacity="0.10" stroke-width="0.8"/><line x1="247.1" y1="820.6" x2="264.2" y2="1058.6" stroke="#3ad8ff" stroke-opacity="0.10" stroke-width="0.8"/><line x1="518.1" y1="823.0" x2="749.5" y2="809.0" stroke="#3ad8ff" stroke-opacity="0.10" stroke-width="0.8"/><line x1="518.1" y1="823.0" x2="531.2" y2="1095.8" stroke="#3ad8ff" stroke-opacity="0.10" stroke-width="0.8"/><line x1="749.5" y1="809.0" x2="1030.8" y2="813.2" stroke="#3ad8ff" stroke-opacity="0.10" stroke-width="0.8"/><line x1="749.5" y1="809.0" x2="752.2" y2="1098.8" stroke="#3ad8ff" stroke-opacity="0.10" stroke-width="0.8"/><line x1="1030.8" y1="813.2" x2="1259.6" y2="822.7" stroke="#3ad8ff" stroke-opacity="0.10" stroke-width="0.8"/><line x1="1030.8" y1="813.2" x2="999.1" y2="1091.6" stroke="#3ad8ff" stroke-opacity="0.10" stroke-width="0.8"/><line x1="1259.6" y1="822.7" x2="1556.6" y2="803.6" stroke="#3ad8ff" stroke-opacity="0.10" stroke-width="0.8"/><line x1="1259.6" y1="822.7" x2="1270.5" y2="1100.5" stroke="#3ad8ff" stroke-opacity="0.10" stroke-width="0.8"/><line x1="1556.6" y1="803.6" x2="1773.7" y2="825.8" stroke="#3ad8ff" stroke-opacity="0.10" stroke-width="0.8"/><line x1="1556.6" y1="803.6" x2="1522.5" y2="1081.6" stroke="#3ad8ff" stroke-opacity="0.10" stroke-width="0.8"/><line x1="1773.7" y1="825.8" x2="2055.5" y2="805.1" stroke="#3ad8ff" stroke-opacity="0.10" stroke-width="0.8"/><line x1="1773.7" y1="825.8" x2="1797.7" y2="1073.3" stroke="#3ad8ff" stroke-opacity="0.10" stroke-width="0.8"/><line x1="2055.5" y1="805.1" x2="2283.5" y2="808.2" stroke="#3ad8ff" stroke-opacity="0.10" stroke-width="0.8"/><line x1="2055.5" y1="805.1" x2="2026.4" y2="1101.5" stroke="#3ad8ff" stroke-opacity="0.10" stroke-width="0.8"/><line x1="2283.5" y1="808.2" x2="2571.9" y2="799.3" stroke="#3ad8ff" stroke-opacity="0.10" stroke-width="0.8"/><line x1="2283.5" y1="808.2" x2="2304.3" y2="1072.7" stroke="#3ad8ff" stroke-opacity="0.10" stroke-width="0.8"/><line x1="2571.9" y1="799.3" x2="2787.8" y2="816.0" stroke="#3ad8ff" stroke-opacity="0.10" stroke-width="0.8"/><line x1="2571.9" y1="799.3" x2="2568.4" y2="1056.8" stroke="#3ad8ff" stroke-opacity="0.10" stroke-width="0.8"/><line x1="2787.8" y1="816.0" x2="3080.5" y2="798.4" stroke="#3ad8ff" stroke-opacity="0.10" stroke-width="0.8"/><line x1="2787.8" y1="816.0" x2="2800.6" y2="1053.1" stroke="#3ad8ff" stroke-opacity="0.10" stroke-width="0.8"/><line x1="3080.5" y1="798.4" x2="3354.6" y2="812.8" stroke="#3ad8ff" stroke-opacity="0.10" stroke-width="0.8"/><line x1="3080.5" y1="798.4" x2="3089.4" y2="1062.7" stroke="#3ad8ff" stroke-opacity="0.10" stroke-width="0.8"/><line x1="3354.6" y1="812.8" x2="3600.8" y2="832.4" stroke="#3ad8ff" stroke-opacity="0.10" stroke-width="0.8"/><line x1="3354.6" y1="812.8" x2="3330.1" y2="1105.7" stroke="#3ad8ff" stroke-opacity="0.10" stroke-width="0.8"/><line x1="3600.8" y1="832.4" x2="3823.5" y2="798.3" stroke="#3ad8ff" stroke-opacity="0.10" stroke-width="0.8"/><line x1="3600.8" y1="832.4" x2="3588.8" y2="1056.2" stroke="#3ad8ff" stroke-opacity="0.10" stroke-width="0.8"/><line x1="3823.5" y1="798.3" x2="3861.4" y2="1107.0" stroke="#3ad8ff" stroke-opacity="0.10" stroke-width="0.8"/><line x1="-3.6" y1="1072.7" x2="264.2" y2="1058.6" stroke="#3ad8ff" stroke-opacity="0.10" stroke-width="0.8"/><line x1="-3.6" y1="1072.7" x2="0.3" y2="1355.5" stroke="#3ad8ff" stroke-opacity="0.10" stroke-width="0.8"/><line x1="264.2" y1="1058.6" x2="531.2" y2="1095.8" stroke="#3ad8ff" stroke-opacity="0.10" stroke-width="0.8"/><line x1="264.2" y1="1058.6" x2="264.7" y2="1358.5" stroke="#3ad8ff" stroke-opacity="0.10" stroke-width="0.8"/><line x1="531.2" y1="1095.8" x2="752.2" y2="1098.8" stroke="#3ad8ff" stroke-opacity="0.10" stroke-width="0.8"/><line x1="531.2" y1="1095.8" x2="511.8" y2="1321.0" stroke="#3ad8ff" stroke-opacity="0.10" stroke-width="0.8"/><line x1="752.2" y1="1098.8" x2="999.1" y2="1091.6" stroke="#3ad8ff" stroke-opacity="0.10" stroke-width="0.8"/><line x1="752.2" y1="1098.8" x2="746.9" y2="1378.7" stroke="#3ad8ff" stroke-opacity="0.10" stroke-width="0.8"/><line x1="999.1" y1="1091.6" x2="1270.5" y2="1100.5" stroke="#3ad8ff" stroke-opacity="0.10" stroke-width="0.8"/><line x1="999.1" y1="1091.6" x2="1048.9" y2="1359.0" stroke="#3ad8ff" stroke-opacity="0.10" stroke-width="0.8"/><line x1="1270.5" y1="1100.5" x2="1522.5" y2="1081.6" stroke="#3ad8ff" stroke-opacity="0.10" stroke-width="0.8"/><line x1="1270.5" y1="1100.5" x2="1286.9" y2="1375.8" stroke="#3ad8ff" stroke-opacity="0.10" stroke-width="0.8"/><line x1="1522.5" y1="1081.6" x2="1797.7" y2="1073.3" stroke="#3ad8ff" stroke-opacity="0.10" stroke-width="0.8"/><line x1="1522.5" y1="1081.6" x2="1550.1" y2="1321.3" stroke="#3ad8ff" stroke-opacity="0.10" stroke-width="0.8"/><line x1="1797.7" y1="1073.3" x2="2026.4" y2="1101.5" stroke="#3ad8ff" stroke-opacity="0.10" stroke-width="0.8"/><line x1="1797.7" y1="1073.3" x2="1809.4" y2="1329.7" stroke="#3ad8ff" stroke-opacity="0.10" stroke-width="0.8"/><line x1="2026.4" y1="1101.5" x2="2304.3" y2="1072.7" stroke="#3ad8ff" stroke-opacity="0.10" stroke-width="0.8"/><line x1="2026.4" y1="1101.5" x2="2063.1" y2="1358.9" stroke="#3ad8ff" stroke-opacity="0.10" stroke-width="0.8"/><line x1="2304.3" y1="1072.7" x2="2568.4" y2="1056.8" stroke="#3ad8ff" stroke-opacity="0.10" stroke-width="0.8"/><line x1="2304.3" y1="1072.7" x2="2316.7" y2="1368.0" stroke="#3ad8ff" stroke-opacity="0.10" stroke-width="0.8"/><line x1="2568.4" y1="1056.8" x2="2800.6" y2="1053.1" stroke="#3ad8ff" stroke-opacity="0.10" stroke-width="0.8"/><line x1="2568.4" y1="1056.8" x2="2557.7" y2="1368.3" stroke="#3ad8ff" stroke-opacity="0.10" stroke-width="0.8"/><line x1="2800.6" y1="1053.1" x2="3089.4" y2="1062.7" stroke="#3ad8ff" stroke-opacity="0.10" stroke-width="0.8"/><line x1="2800.6" y1="1053.1" x2="2826.4" y2="1365.1" stroke="#3ad8ff" stroke-opacity="0.10" stroke-width="0.8"/><line x1="3089.4" y1="1062.7" x2="3330.1" y2="1105.7" stroke="#3ad8ff" stroke-opacity="0.10" stroke-width="0.8"/><line x1="3089.4" y1="1062.7" x2="3043.5" y2="1345.6" stroke="#3ad8ff" stroke-opacity="0.10" stroke-width="0.8"/><line x1="3330.1" y1="1105.7" x2="3588.8" y2="1056.2" stroke="#3ad8ff" stroke-opacity="0.10" stroke-width="0.8"/><line x1="3330.1" y1="1105.7" x2="3345.5" y2="1326.1" stroke="#3ad8ff" stroke-opacity="0.10" stroke-width="0.8"/><line x1="3588.8" y1="1056.2" x2="3861.4" y2="1107.0" stroke="#3ad8ff" stroke-opacity="0.10" stroke-width="0.8"/><line x1="3588.8" y1="1056.2" x2="3564.2" y2="1363.1" stroke="#3ad8ff" stroke-opacity="0.10" stroke-width="0.8"/><line x1="3861.4" y1="1107.0" x2="3864.5" y2="1357.8" stroke="#3ad8ff" stroke-opacity="0.10" stroke-width="0.8"/><line x1="0.3" y1="1355.5" x2="264.7" y2="1358.5" stroke="#3ad8ff" stroke-opacity="0.10" stroke-width="0.8"/><line x1="0.3" y1="1355.5" x2="21.5" y2="1599.4" stroke="#3ad8ff" stroke-opacity="0.10" stroke-width="0.8"/><line x1="264.7" y1="1358.5" x2="511.8" y2="1321.0" stroke="#3ad8ff" stroke-opacity="0.10" stroke-width="0.8"/><line x1="264.7" y1="1358.5" x2="237.8" y2="1594.7" stroke="#3ad8ff" stroke-opacity="0.10" stroke-width="0.8"/><line x1="511.8" y1="1321.0" x2="746.9" y2="1378.7" stroke="#3ad8ff" stroke-opacity="0.10" stroke-width="0.8"/><line x1="511.8" y1="1321.0" x2="515.0" y2="1644.7" stroke="#3ad8ff" stroke-opacity="0.10" stroke-width="0.8"/><line x1="746.9" y1="1378.7" x2="1048.9" y2="1359.0" stroke="#3ad8ff" stroke-opacity="0.10" stroke-width="0.8"/><line x1="746.9" y1="1378.7" x2="772.6" y2="1604.7" stroke="#3ad8ff" stroke-opacity="0.10" stroke-width="0.8"/><line x1="1048.9" y1="1359.0" x2="1286.9" y2="1375.8" stroke="#3ad8ff" stroke-opacity="0.10" stroke-width="0.8"/><line x1="1048.9" y1="1359.0" x2="1048.9" y2="1593.5" stroke="#3ad8ff" stroke-opacity="0.10" stroke-width="0.8"/><line x1="1286.9" y1="1375.8" x2="1550.1" y2="1321.3" stroke="#3ad8ff" stroke-opacity="0.10" stroke-width="0.8"/><line x1="1286.9" y1="1375.8" x2="1263.6" y2="1637.3" stroke="#3ad8ff" stroke-opacity="0.10" stroke-width="0.8"/><line x1="1550.1" y1="1321.3" x2="1809.4" y2="1329.7" stroke="#3ad8ff" stroke-opacity="0.10" stroke-width="0.8"/><line x1="1550.1" y1="1321.3" x2="1525.7" y2="1623.1" stroke="#3ad8ff" stroke-opacity="0.10" stroke-width="0.8"/><line x1="1809.4" y1="1329.7" x2="2063.1" y2="1358.9" stroke="#3ad8ff" stroke-opacity="0.10" stroke-width="0.8"/><line x1="1809.4" y1="1329.7" x2="1790.4" y2="1601.7" stroke="#3ad8ff" stroke-opacity="0.10" stroke-width="0.8"/><line x1="2063.1" y1="1358.9" x2="2316.7" y2="1368.0" stroke="#3ad8ff" stroke-opacity="0.10" stroke-width="0.8"/><line x1="2063.1" y1="1358.9" x2="2022.4" y2="1640.9" stroke="#3ad8ff" stroke-opacity="0.10" stroke-width="0.8"/><line x1="2316.7" y1="1368.0" x2="2557.7" y2="1368.3" stroke="#3ad8ff" stroke-opacity="0.10" stroke-width="0.8"/><line x1="2316.7" y1="1368.0" x2="2313.7" y2="1611.7" stroke="#3ad8ff" stroke-opacity="0.10" stroke-width="0.8"/><line x1="2557.7" y1="1368.3" x2="2826.4" y2="1365.1" stroke="#3ad8ff" stroke-opacity="0.10" stroke-width="0.8"/><line x1="2557.7" y1="1368.3" x2="2564.8" y2="1591.7" stroke="#3ad8ff" stroke-opacity="0.10" stroke-width="0.8"/><line x1="2826.4" y1="1365.1" x2="3043.5" y2="1345.6" stroke="#3ad8ff" stroke-opacity="0.10" stroke-width="0.8"/><line x1="2826.4" y1="1365.1" x2="2842.2" y2="1630.7" stroke="#3ad8ff" stroke-opacity="0.10" stroke-width="0.8"/><line x1="3043.5" y1="1345.6" x2="3345.5" y2="1326.1" stroke="#3ad8ff" stroke-opacity="0.10" stroke-width="0.8"/><line x1="3043.5" y1="1345.6" x2="3099.1" y2="1593.6" stroke="#3ad8ff" stroke-opacity="0.10" stroke-width="0.8"/><line x1="3345.5" y1="1326.1" x2="3564.2" y2="1363.1" stroke="#3ad8ff" stroke-opacity="0.10" stroke-width="0.8"/><line x1="3345.5" y1="1326.1" x2="3331.0" y2="1596.9" stroke="#3ad8ff" stroke-opacity="0.10" stroke-width="0.8"/><line x1="3564.2" y1="1363.1" x2="3864.5" y2="1357.8" stroke="#3ad8ff" stroke-opacity="0.10" stroke-width="0.8"/><line x1="3564.2" y1="1363.1" x2="3593.1" y2="1613.9" stroke="#3ad8ff" stroke-opacity="0.10" stroke-width="0.8"/><line x1="3864.5" y1="1357.8" x2="3826.7" y2="1623.7" stroke="#3ad8ff" stroke-opacity="0.10" stroke-width="0.8"/><line x1="21.5" y1="1599.4" x2="237.8" y2="1594.7" stroke="#3ad8ff" stroke-opacity="0.10" stroke-width="0.8"/><line x1="21.5" y1="1599.4" x2="-12.8" y2="1901.4" stroke="#3ad8ff" stroke-opacity="0.10" stroke-width="0.8"/><line x1="237.8" y1="1594.7" x2="515.0" y2="1644.7" stroke="#3ad8ff" stroke-opacity="0.10" stroke-width="0.8"/><line x1="237.8" y1="1594.7" x2="226.4" y2="1911.1" stroke="#3ad8ff" stroke-opacity="0.10" stroke-width="0.8"/><line x1="515.0" y1="1644.7" x2="772.6" y2="1604.7" stroke="#3ad8ff" stroke-opacity="0.10" stroke-width="0.8"/><line x1="515.0" y1="1644.7" x2="500.0" y2="1882.3" stroke="#3ad8ff" stroke-opacity="0.10" stroke-width="0.8"/><line x1="772.6" y1="1604.7" x2="1048.9" y2="1593.5" stroke="#3ad8ff" stroke-opacity="0.10" stroke-width="0.8"/><line x1="772.6" y1="1604.7" x2="784.0" y2="1879.3" stroke="#3ad8ff" stroke-opacity="0.10" stroke-width="0.8"/><line x1="1048.9" y1="1593.5" x2="1263.6" y2="1637.3" stroke="#3ad8ff" stroke-opacity="0.10" stroke-width="0.8"/><line x1="1048.9" y1="1593.5" x2="1039.4" y2="1863.4" stroke="#3ad8ff" stroke-opacity="0.10" stroke-width="0.8"/><line x1="1263.6" y1="1637.3" x2="1525.7" y2="1623.1" stroke="#3ad8ff" stroke-opacity="0.10" stroke-width="0.8"/><line x1="1263.6" y1="1637.3" x2="1295.6" y2="1863.2" stroke="#3ad8ff" stroke-opacity="0.10" stroke-width="0.8"/><line x1="1525.7" y1="1623.1" x2="1790.4" y2="1601.7" stroke="#3ad8ff" stroke-opacity="0.10" stroke-width="0.8"/><line x1="1525.7" y1="1623.1" x2="1551.7" y2="1908.1" stroke="#3ad8ff" stroke-opacity="0.10" stroke-width="0.8"/><line x1="1790.4" y1="1601.7" x2="2022.4" y2="1640.9" stroke="#3ad8ff" stroke-opacity="0.10" stroke-width="0.8"/><line x1="1790.4" y1="1601.7" x2="1799.4" y2="1883.8" stroke="#3ad8ff" stroke-opacity="0.10" stroke-width="0.8"/><line x1="2022.4" y1="1640.9" x2="2313.7" y2="1611.7" stroke="#3ad8ff" stroke-opacity="0.10" stroke-width="0.8"/><line x1="2022.4" y1="1640.9" x2="2028.4" y2="1889.8" stroke="#3ad8ff" stroke-opacity="0.10" stroke-width="0.8"/><line x1="2313.7" y1="1611.7" x2="2564.8" y2="1591.7" stroke="#3ad8ff" stroke-opacity="0.10" stroke-width="0.8"/><line x1="2313.7" y1="1611.7" x2="2314.5" y2="1871.0" stroke="#3ad8ff" stroke-opacity="0.10" stroke-width="0.8"/><line x1="2564.8" y1="1591.7" x2="2842.2" y2="1630.7" stroke="#3ad8ff" stroke-opacity="0.10" stroke-width="0.8"/><line x1="2564.8" y1="1591.7" x2="2534.4" y2="1871.3" stroke="#3ad8ff" stroke-opacity="0.10" stroke-width="0.8"/><line x1="2842.2" y1="1630.7" x2="3099.1" y2="1593.6" stroke="#3ad8ff" stroke-opacity="0.10" stroke-width="0.8"/><line x1="2842.2" y1="1630.7" x2="2844.0" y2="1898.4" stroke="#3ad8ff" stroke-opacity="0.10" stroke-width="0.8"/><line x1="3099.1" y1="1593.6" x2="3331.0" y2="1596.9" stroke="#3ad8ff" stroke-opacity="0.10" stroke-width="0.8"/><line x1="3099.1" y1="1593.6" x2="3089.1" y2="1869.5" stroke="#3ad8ff" stroke-opacity="0.10" stroke-width="0.8"/><line x1="3331.0" y1="1596.9" x2="3593.1" y2="1613.9" stroke="#3ad8ff" stroke-opacity="0.10" stroke-width="0.8"/><line x1="3331.0" y1="1596.9" x2="3311.3" y2="1896.2" stroke="#3ad8ff" stroke-opacity="0.10" stroke-width="0.8"/><line x1="3593.1" y1="1613.9" x2="3826.7" y2="1623.7" stroke="#3ad8ff" stroke-opacity="0.10" stroke-width="0.8"/><line x1="3593.1" y1="1613.9" x2="3558.8" y2="1873.4" stroke="#3ad8ff" stroke-opacity="0.10" stroke-width="0.8"/><line x1="3826.7" y1="1623.7" x2="3821.2" y2="1861.2" stroke="#3ad8ff" stroke-opacity="0.10" stroke-width="0.8"/><line x1="-12.8" y1="1901.4" x2="226.4" y2="1911.1" stroke="#3ad8ff" stroke-opacity="0.10" stroke-width="0.8"/><line x1="-12.8" y1="1901.4" x2="27.6" y2="2161.4" stroke="#3ad8ff" stroke-opacity="0.10" stroke-width="0.8"/><line x1="226.4" y1="1911.1" x2="500.0" y2="1882.3" stroke="#3ad8ff" stroke-opacity="0.10" stroke-width="0.8"/><line x1="226.4" y1="1911.1" x2="271.4" y2="2136.3" stroke="#3ad8ff" stroke-opacity="0.10" stroke-width="0.8"/><line x1="500.0" y1="1882.3" x2="784.0" y2="1879.3" stroke="#3ad8ff" stroke-opacity="0.10" stroke-width="0.8"/><line x1="500.0" y1="1882.3" x2="537.5" y2="2149.3" stroke="#3ad8ff" stroke-opacity="0.10" stroke-width="0.8"/><line x1="784.0" y1="1879.3" x2="1039.4" y2="1863.4" stroke="#3ad8ff" stroke-opacity="0.10" stroke-width="0.8"/><line x1="784.0" y1="1879.3" x2="741.1" y2="2172.6" stroke="#3ad8ff" stroke-opacity="0.10" stroke-width="0.8"/><line x1="1039.4" y1="1863.4" x2="1295.6" y2="1863.2" stroke="#3ad8ff" stroke-opacity="0.10" stroke-width="0.8"/><line x1="1039.4" y1="1863.4" x2="1023.4" y2="2179.6" stroke="#3ad8ff" stroke-opacity="0.10" stroke-width="0.8"/><line x1="1295.6" y1="1863.2" x2="1551.7" y2="1908.1" stroke="#3ad8ff" stroke-opacity="0.10" stroke-width="0.8"/><line x1="1295.6" y1="1863.2" x2="1269.5" y2="2176.6" stroke="#3ad8ff" stroke-opacity="0.10" stroke-width="0.8"/><line x1="1551.7" y1="1908.1" x2="1799.4" y2="1883.8" stroke="#3ad8ff" stroke-opacity="0.10" stroke-width="0.8"/><line x1="1551.7" y1="1908.1" x2="1541.1" y2="2149.8" stroke="#3ad8ff" stroke-opacity="0.10" stroke-width="0.8"/><line x1="1799.4" y1="1883.8" x2="2028.4" y2="1889.8" stroke="#3ad8ff" stroke-opacity="0.10" stroke-width="0.8"/><line x1="1799.4" y1="1883.8" x2="1803.9" y2="2136.2" stroke="#3ad8ff" stroke-opacity="0.10" stroke-width="0.8"/><line x1="2028.4" y1="1889.8" x2="2314.5" y2="1871.0" stroke="#3ad8ff" stroke-opacity="0.10" stroke-width="0.8"/><line x1="2028.4" y1="1889.8" x2="2050.3" y2="2171.8" stroke="#3ad8ff" stroke-opacity="0.10" stroke-width="0.8"/><line x1="2314.5" y1="1871.0" x2="2534.4" y2="1871.3" stroke="#3ad8ff" stroke-opacity="0.10" stroke-width="0.8"/><line x1="2314.5" y1="1871.0" x2="2277.7" y2="2171.4" stroke="#3ad8ff" stroke-opacity="0.10" stroke-width="0.8"/><line x1="2534.4" y1="1871.3" x2="2844.0" y2="1898.4" stroke="#3ad8ff" stroke-opacity="0.10" stroke-width="0.8"/><line x1="2534.4" y1="1871.3" x2="2553.9" y2="2132.3" stroke="#3ad8ff" stroke-opacity="0.10" stroke-width="0.8"/><line x1="2844.0" y1="1898.4" x2="3089.1" y2="1869.5" stroke="#3ad8ff" stroke-opacity="0.10" stroke-width="0.8"/><line x1="2844.0" y1="1898.4" x2="2809.9" y2="2188.8" stroke="#3ad8ff" stroke-opacity="0.10" stroke-width="0.8"/><line x1="3089.1" y1="1869.5" x2="3311.3" y2="1896.2" stroke="#3ad8ff" stroke-opacity="0.10" stroke-width="0.8"/><line x1="3089.1" y1="1869.5" x2="3044.5" y2="2166.9" stroke="#3ad8ff" stroke-opacity="0.10" stroke-width="0.8"/><line x1="3311.3" y1="1896.2" x2="3558.8" y2="1873.4" stroke="#3ad8ff" stroke-opacity="0.10" stroke-width="0.8"/><line x1="3311.3" y1="1896.2" x2="3324.0" y2="2157.4" stroke="#3ad8ff" stroke-opacity="0.10" stroke-width="0.8"/><line x1="3558.8" y1="1873.4" x2="3821.2" y2="1861.2" stroke="#3ad8ff" stroke-opacity="0.10" stroke-width="0.8"/><line x1="3558.8" y1="1873.4" x2="3613.5" y2="2165.8" stroke="#3ad8ff" stroke-opacity="0.10" stroke-width="0.8"/><line x1="3821.2" y1="1861.2" x2="3846.9" y2="2163.7" stroke="#3ad8ff" stroke-opacity="0.10" stroke-width="0.8"/><line x1="27.6" y1="2161.4" x2="271.4" y2="2136.3" stroke="#3ad8ff" stroke-opacity="0.10" stroke-width="0.8"/><line x1="271.4" y1="2136.3" x2="537.5" y2="2149.3" stroke="#3ad8ff" stroke-opacity="0.10" stroke-width="0.8"/><line x1="537.5" y1="2149.3" x2="741.1" y2="2172.6" stroke="#3ad8ff" stroke-opacity="0.10" stroke-width="0.8"/><line x1="741.1" y1="2172.6" x2="1023.4" y2="2179.6" stroke="#3ad8ff" stroke-opacity="0.10" stroke-width="0.8"/><line x1="1023.4" y1="2179.6" x2="1269.5" y2="2176.6" stroke="#3ad8ff" stroke-opacity="0.10" stroke-width="0.8"/><line x1="1269.5" y1="2176.6" x2="1541.1" y2="2149.8" stroke="#3ad8ff" stroke-opacity="0.10" stroke-width="0.8"/><line x1="1541.1" y1="2149.8" x2="1803.9" y2="2136.2" stroke="#3ad8ff" stroke-opacity="0.10" stroke-width="0.8"/><line x1="1803.9" y1="2136.2" x2="2050.3" y2="2171.8" stroke="#3ad8ff" stroke-opacity="0.10" stroke-width="0.8"/><line x1="2050.3" y1="2171.8" x2="2277.7" y2="2171.4" stroke="#3ad8ff" stroke-opacity="0.10" stroke-width="0.8"/><line x1="2277.7" y1="2171.4" x2="2553.9" y2="2132.3" stroke="#3ad8ff" stroke-opacity="0.10" stroke-width="0.8"/><line x1="2553.9" y1="2132.3" x2="2809.9" y2="2188.8" stroke="#3ad8ff" stroke-opacity="0.10" stroke-width="0.8"/><line x1="2809.9" y1="2188.8" x2="3044.5" y2="2166.9" stroke="#3ad8ff" stroke-opacity="0.10" stroke-width="0.8"/><line x1="3044.5" y1="2166.9" x2="3324.0" y2="2157.4" stroke="#3ad8ff" stroke-opacity="0.10" stroke-width="0.8"/><line x1="3324.0" y1="2157.4" x2="3613.5" y2="2165.8" stroke="#3ad8ff" stroke-opacity="0.10" stroke-width="0.8"/><line x1="3613.5" y1="2165.8" x2="3846.9" y2="2163.7" stroke="#3ad8ff" stroke-opacity="0.10" stroke-width="0.8"/><circle cx="7.1" cy="2.0" r="2" fill="#a06bff" fill-opacity="0.7"/><circle cx="248.0" cy="5.1" r="2" fill="#a06bff" fill-opacity="0.7"/><circle cx="491.9" cy="19.5" r="2" fill="#a06bff" fill-opacity="0.7"/><circle cx="761.0" cy="17.4" r="2" fill="#a06bff" fill-opacity="0.7"/><circle cx="1049.3" cy="-11.5" r="2" fill="#a06bff" fill-opacity="0.7"/><circle cx="1309.5" cy="-17.7" r="2" fill="#a06bff" fill-opacity="0.7"/><circle cx="1545.4" cy="24.7" r="2" fill="#a06bff" fill-opacity="0.7"/><circle cx="1768.6" cy="19.2" r="2" fill="#a06bff" fill-opacity="0.7"/><circle cx="2041.9" cy="-26.1" r="2" fill="#a06bff" fill-opacity="0.7"/><circle cx="2316.0" cy="-9.1" r="2" fill="#a06bff" fill-opacity="0.7"/><circle cx="2554.2" cy="18.1" r="2" fill="#a06bff" fill-opacity="0.7"/><circle cx="2834.0" cy="9.8" r="2" fill="#a06bff" fill-opacity="0.7"/><circle cx="3092.0" cy="5.7" r="2" fill="#a06bff" fill-opacity="0.7"/><circle cx="3325.7" cy="27.5" r="2" fill="#a06bff" fill-opacity="0.7"/><circle cx="3601.7" cy="-11.2" r="2" fill="#a06bff" fill-opacity="0.7"/><circle cx="3851.4" cy="24.9" r="2" fill="#a06bff" fill-opacity="0.7"/><circle cx="-2.6" cy="255.9" r="2" fill="#a06bff" fill-opacity="0.7"/><circle cx="238.1" cy="244.0" r="2" fill="#a06bff" fill-opacity="0.7"/><circle cx="513.5" cy="277.1" r="2" fill="#a06bff" fill-opacity="0.7"/><circle cx="772.6" cy="242.6" r="2" fill="#a06bff" fill-opacity="0.7"/><circle cx="1018.4" cy="279.2" r="2" fill="#a06bff" fill-opacity="0.7"/><circle cx="1287.2" cy="280.5" r="2" fill="#a06bff" fill-opacity="0.7"/><circle cx="1544.1" cy="251.8" r="2" fill="#a06bff" fill-opacity="0.7"/><circle cx="1779.1" cy="267.1" r="2" fill="#a06bff" fill-opacity="0.7"/><circle cx="2073.0" cy="287.9" r="2" fill="#a06bff" fill-opacity="0.7"/><circle cx="2292.9" cy="287.7" r="2" fill="#a06bff" fill-opacity="0.7"/><circle cx="2566.6" cy="265.9" r="2" fill="#a06bff" fill-opacity="0.7"/><circle cx="2833.4" cy="273.0" r="2" fill="#a06bff" fill-opacity="0.7"/><circle cx="3088.6" cy="273.3" r="2" fill="#a06bff" fill-opacity="0.7"/><circle cx="3336.7" cy="290.9" r="2" fill="#a06bff" fill-opacity="0.7"/><circle cx="3566.8" cy="298.5" r="2" fill="#a06bff" fill-opacity="0.7"/><circle cx="3841.7" cy="271.7" r="2" fill="#a06bff" fill-opacity="0.7"/><circle cx="16.5" cy="513.0" r="2" fill="#a06bff" fill-opacity="0.7"/><circle cx="255.7" cy="554.2" r="2" fill="#a06bff" fill-opacity="0.7"/><circle cx="509.3" cy="563.9" r="2" fill="#a06bff" fill-opacity="0.7"/><circle cx="786.3" cy="539.3" r="2" fill="#a06bff" fill-opacity="0.7"/><circle cx="1039.1" cy="553.7" r="2" fill="#a06bff" fill-opacity="0.7"/><circle cx="1271.2" cy="543.5" r="2" fill="#a06bff" fill-opacity="0.7"/><circle cx="1540.1" cy="525.4" r="2" fill="#a06bff" fill-opacity="0.7"/><circle cx="1766.0" cy="517.8" r="2" fill="#a06bff" fill-opacity="0.7"/><circle cx="2021.5" cy="520.2" r="2" fill="#a06bff" fill-opacity="0.7"/><circle cx="2323.2" cy="521.5" r="2" fill="#a06bff" fill-opacity="0.7"/><circle cx="2587.2" cy="560.0" r="2" fill="#a06bff" fill-opacity="0.7"/><circle cx="2838.7" cy="543.3" r="2" fill="#a06bff" fill-opacity="0.7"/><circle cx="3067.6" cy="546.4" r="2" fill="#a06bff" fill-opacity="0.7"/><circle cx="3350.9" cy="565.9" r="2" fill="#a06bff" fill-opacity="0.7"/><circle cx="3579.8" cy="554.5" r="2" fill="#a06bff" fill-opacity="0.7"/><circle cx="3819.3" cy="548.0" r="2" fill="#a06bff" fill-opacity="0.7"/><circle cx="-9.2" cy="784.1" r="2" fill="#a06bff" fill-opacity="0.7"/><circle cx="247.1" cy="820.6" r="2" fill="#a06bff" fill-opacity="0.7"/><circle cx="518.1" cy="823.0" r="2" fill="#a06bff" fill-opacity="0.7"/><circle cx="749.5" cy="809.0" r="2" fill="#a06bff" fill-opacity="0.7"/><circle cx="1030.8" cy="813.2" r="2" fill="#a06bff" fill-opacity="0.7"/><circle cx="1259.6" cy="822.7" r="2" fill="#a06bff" fill-opacity="0.7"/><circle cx="1556.6" cy="803.6" r="2" fill="#a06bff" fill-opacity="0.7"/><circle cx="1773.7" cy="825.8" r="2" fill="#a06bff" fill-opacity="0.7"/><circle cx="2055.5" cy="805.1" r="2" fill="#a06bff" fill-opacity="0.7"/><circle cx="2283.5" cy="808.2" r="2" fill="#a06bff" fill-opacity="0.7"/><circle cx="2571.9" cy="799.3" r="2" fill="#a06bff" fill-opacity="0.7"/><circle cx="2787.8" cy="816.0" r="2" fill="#a06bff" fill-opacity="0.7"/><circle cx="3080.5" cy="798.4" r="2" fill="#a06bff" fill-opacity="0.7"/><circle cx="3354.6" cy="812.8" r="2" fill="#a06bff" fill-opacity="0.7"/><circle cx="3600.8" cy="832.4" r="2" fill="#a06bff" fill-opacity="0.7"/><circle cx="3823.5" cy="798.3" r="2" fill="#a06bff" fill-opacity="0.7"/><circle cx="-3.6" cy="1072.7" r="2" fill="#a06bff" fill-opacity="0.7"/><circle cx="264.2" cy="1058.6" r="2" fill="#a06bff" fill-opacity="0.7"/><circle cx="531.2" cy="1095.8" r="2" fill="#a06bff" fill-opacity="0.7"/><circle cx="752.2" cy="1098.8" r="2" fill="#a06bff" fill-opacity="0.7"/><circle cx="999.1" cy="1091.6" r="2" fill="#a06bff" fill-opacity="0.7"/><circle cx="1270.5" cy="1100.5" r="2" fill="#a06bff" fill-opacity="0.7"/><circle cx="1522.5" cy="1081.6" r="2" fill="#a06bff" fill-opacity="0.7"/><circle cx="1797.7" cy="1073.3" r="2" fill="#a06bff" fill-opacity="0.7"/><circle cx="2026.4" cy="1101.5" r="2" fill="#a06bff" fill-opacity="0.7"/><circle cx="2304.3" cy="1072.7" r="2" fill="#a06bff" fill-opacity="0.7"/><circle cx="2568.4" cy="1056.8" r="2" fill="#a06bff" fill-opacity="0.7"/><circle cx="2800.6" cy="1053.1" r="2" fill="#a06bff" fill-opacity="0.7"/><circle cx="3089.4" cy="1062.7" r="2" fill="#a06bff" fill-opacity="0.7"/><circle cx="3330.1" cy="1105.7" r="2" fill="#a06bff" fill-opacity="0.7"/><circle cx="3588.8" cy="1056.2" r="2" fill="#a06bff" fill-opacity="0.7"/><circle cx="3861.4" cy="1107.0" r="2" fill="#a06bff" fill-opacity="0.7"/><circle cx="0.3" cy="1355.5" r="2" fill="#a06bff" fill-opacity="0.7"/><circle cx="264.7" cy="1358.5" r="2" fill="#a06bff" fill-opacity="0.7"/><circle cx="511.8" cy="1321.0" r="2" fill="#a06bff" fill-opacity="0.7"/><circle cx="746.9" cy="1378.7" r="2" fill="#a06bff" fill-opacity="0.7"/><circle cx="1048.9" cy="1359.0" r="2" fill="#a06bff" fill-opacity="0.7"/><circle cx="1286.9" cy="1375.8" r="2" fill="#a06bff" fill-opacity="0.7"/><circle cx="1550.1" cy="1321.3" r="2" fill="#a06bff" fill-opacity="0.7"/><circle cx="1809.4" cy="1329.7" r="2" fill="#a06bff" fill-opacity="0.7"/><circle cx="2063.1" cy="1358.9" r="2" fill="#a06bff" fill-opacity="0.7"/><circle cx="2316.7" cy="1368.0" r="2" fill="#a06bff" fill-opacity="0.7"/><circle cx="2557.7" cy="1368.3" r="2" fill="#a06bff" fill-opacity="0.7"/><circle cx="2826.4" cy="1365.1" r="2" fill="#a06bff" fill-opacity="0.7"/><circle cx="3043.5" cy="1345.6" r="2" fill="#a06bff" fill-opacity="0.7"/><circle cx="3345.5" cy="1326.1" r="2" fill="#a06bff" fill-opacity="0.7"/><circle cx="3564.2" cy="1363.1" r="2" fill="#a06bff" fill-opacity="0.7"/><circle cx="3864.5" cy="1357.8" r="2" fill="#a06bff" fill-opacity="0.7"/><circle cx="21.5" cy="1599.4" r="2" fill="#a06bff" fill-opacity="0.7"/><circle cx="237.8" cy="1594.7" r="2" fill="#a06bff" fill-opacity="0.7"/><circle cx="515.0" cy="1644.7" r="2" fill="#a06bff" fill-opacity="0.7"/><circle cx="772.6" cy="1604.7" r="2" fill="#a06bff" fill-opacity="0.7"/><circle cx="1048.9" cy="1593.5" r="2" fill="#a06bff" fill-opacity="0.7"/><circle cx="1263.6" cy="1637.3" r="2" fill="#a06bff" fill-opacity="0.7"/><circle cx="1525.7" cy="1623.1" r="2" fill="#a06bff" fill-opacity="0.7"/><circle cx="1790.4" cy="1601.7" r="2" fill="#a06bff" fill-opacity="0.7"/><circle cx="2022.4" cy="1640.9" r="2" fill="#a06bff" fill-opacity="0.7"/><circle cx="2313.7" cy="1611.7" r="2" fill="#a06bff" fill-opacity="0.7"/><circle cx="2564.8" cy="1591.7" r="2" fill="#a06bff" fill-opacity="0.7"/><circle cx="2842.2" cy="1630.7" r="2" fill="#a06bff" fill-opacity="0.7"/><circle cx="3099.1" cy="1593.6" r="2" fill="#a06bff" fill-opacity="0.7"/><circle cx="3331.0" cy="1596.9" r="2" fill="#a06bff" fill-opacity="0.7"/><circle cx="3593.1" cy="1613.9" r="2" fill="#a06bff" fill-opacity="0.7"/><circle cx="3826.7" cy="1623.7" r="2" fill="#a06bff" fill-opacity="0.7"/><circle cx="-12.8" cy="1901.4" r="2" fill="#a06bff" fill-opacity="0.7"/><circle cx="226.4" cy="1911.1" r="2" fill="#a06bff" fill-opacity="0.7"/><circle cx="500.0" cy="1882.3" r="2" fill="#a06bff" fill-opacity="0.7"/><circle cx="784.0" cy="1879.3" r="2" fill="#a06bff" fill-opacity="0.7"/><circle cx="1039.4" cy="1863.4" r="2" fill="#a06bff" fill-opacity="0.7"/><circle cx="1295.6" cy="1863.2" r="2" fill="#a06bff" fill-opacity="0.7"/><circle cx="1551.7" cy="1908.1" r="2" fill="#a06bff" fill-opacity="0.7"/><circle cx="1799.4" cy="1883.8" r="2" fill="#a06bff" fill-opacity="0.7"/><circle cx="2028.4" cy="1889.8" r="2" fill="#a06bff" fill-opacity="0.7"/><circle cx="2314.5" cy="1871.0" r="2" fill="#a06bff" fill-opacity="0.7"/><circle cx="2534.4" cy="1871.3" r="2" fill="#a06bff" fill-opacity="0.7"/><circle cx="2844.0" cy="1898.4" r="2" fill="#a06bff" fill-opacity="0.7"/><circle cx="3089.1" cy="1869.5" r="2" fill="#a06bff" fill-opacity="0.7"/><circle cx="3311.3" cy="1896.2" r="2" fill="#a06bff" fill-opacity="0.7"/><circle cx="3558.8" cy="1873.4" r="2" fill="#a06bff" fill-opacity="0.7"/><circle cx="3821.2" cy="1861.2" r="2" fill="#a06bff" fill-opacity="0.7"/><circle cx="27.6" cy="2161.4" r="2" fill="#a06bff" fill-opacity="0.7"/><circle cx="271.4" cy="2136.3" r="2" fill="#a06bff" fill-opacity="0.7"/><circle cx="537.5" cy="2149.3" r="2" fill="#a06bff" fill-opacity="0.7"/><circle cx="741.1" cy="2172.6" r="2" fill="#a06bff" fill-opacity="0.7"/><circle cx="1023.4" cy="2179.6" r="2" fill="#a06bff" fill-opacity="0.7"/><circle cx="1269.5" cy="2176.6" r="2" fill="#a06bff" fill-opacity="0.7"/><circle cx="1541.1" cy="2149.8" r="2" fill="#a06bff" fill-opacity="0.7"/><circle cx="1803.9" cy="2136.2" r="2" fill="#a06bff" fill-opacity="0.7"/><circle cx="2050.3" cy="2171.8" r="2" fill="#a06bff" fill-opacity="0.7"/><circle cx="2277.7" cy="2171.4" r="2" fill="#a06bff" fill-opacity="0.7"/><circle cx="2553.9" cy="2132.3" r="2" fill="#a06bff" fill-opacity="0.7"/><circle cx="2809.9" cy="2188.8" r="2" fill="#a06bff" fill-opacity="0.7"/><circle cx="3044.5" cy="2166.9" r="2" fill="#a06bff" fill-opacity="0.7"/><circle cx="3324.0" cy="2157.4" r="2" fill="#a06bff" fill-opacity="0.7"/><circle cx="3613.5" cy="2165.8" r="2" fill="#a06bff" fill-opacity="0.7"/><circle cx="3846.9" cy="2163.7" r="2" fill="#a06bff" fill-opacity="0.7"/>
</svg>
